<mxfile host="Electron" agent="Mozilla/5.0 (Windows NT 10.0; Win64; x64) AppleWebKit/537.36 (KHTML, like Gecko) draw.io/24.7.17 Chrome/128.0.6613.36 Electron/32.0.1 Safari/537.36" version="24.7.17">
  <diagram name="Page-1" id="KI604NOO1jSl5MEKNSrt">
    <mxGraphModel dx="1434" dy="844" grid="1" gridSize="10" guides="1" tooltips="1" connect="1" arrows="1" fold="1" page="1" pageScale="1" pageWidth="850" pageHeight="1100" math="0" shadow="0">
      <root>
        <mxCell id="0" />
        <mxCell id="1" parent="0" />
        <mxCell id="iFPo0OKM2Bkg96453K7g-10" style="edgeStyle=orthogonalEdgeStyle;rounded=0;orthogonalLoop=1;jettySize=auto;html=1;exitX=0.5;exitY=1;exitDx=0;exitDy=0;entryX=0.5;entryY=0;entryDx=0;entryDy=0;" edge="1" parent="1" source="iFPo0OKM2Bkg96453K7g-1" target="iFPo0OKM2Bkg96453K7g-2">
          <mxGeometry relative="1" as="geometry" />
        </mxCell>
        <mxCell id="iFPo0OKM2Bkg96453K7g-1" value="Vẽ đồ thị" style="rounded=1;whiteSpace=wrap;html=1;" vertex="1" parent="1">
          <mxGeometry x="361" y="30" width="120" height="60" as="geometry" />
        </mxCell>
        <mxCell id="iFPo0OKM2Bkg96453K7g-11" style="edgeStyle=orthogonalEdgeStyle;rounded=0;orthogonalLoop=1;jettySize=auto;html=1;exitX=0.5;exitY=1;exitDx=0;exitDy=0;entryX=0.5;entryY=0;entryDx=0;entryDy=0;" edge="1" parent="1" source="iFPo0OKM2Bkg96453K7g-2" target="iFPo0OKM2Bkg96453K7g-3">
          <mxGeometry relative="1" as="geometry" />
        </mxCell>
        <mxCell id="iFPo0OKM2Bkg96453K7g-2" value="Khởi tạo đồ thị" style="shape=process;whiteSpace=wrap;html=1;backgroundOutline=1;" vertex="1" parent="1">
          <mxGeometry x="361" y="153" width="120" height="60" as="geometry" />
        </mxCell>
        <mxCell id="iFPo0OKM2Bkg96453K7g-12" style="edgeStyle=orthogonalEdgeStyle;rounded=0;orthogonalLoop=1;jettySize=auto;html=1;exitX=0.5;exitY=1;exitDx=0;exitDy=0;entryX=0.5;entryY=0;entryDx=0;entryDy=0;" edge="1" parent="1" source="iFPo0OKM2Bkg96453K7g-3" target="iFPo0OKM2Bkg96453K7g-5">
          <mxGeometry relative="1" as="geometry" />
        </mxCell>
        <mxCell id="iFPo0OKM2Bkg96453K7g-3" value="Tạo các đỉnh" style="shape=process;whiteSpace=wrap;html=1;backgroundOutline=1;" vertex="1" parent="1">
          <mxGeometry x="361" y="276" width="120" height="60" as="geometry" />
        </mxCell>
        <mxCell id="iFPo0OKM2Bkg96453K7g-13" style="edgeStyle=orthogonalEdgeStyle;rounded=0;orthogonalLoop=1;jettySize=auto;html=1;exitX=0.5;exitY=1;exitDx=0;exitDy=0;entryX=0.5;entryY=0;entryDx=0;entryDy=0;" edge="1" parent="1" source="iFPo0OKM2Bkg96453K7g-5" target="iFPo0OKM2Bkg96453K7g-6">
          <mxGeometry relative="1" as="geometry" />
        </mxCell>
        <mxCell id="iFPo0OKM2Bkg96453K7g-5" value="Kết nối các đỉnh" style="shape=process;whiteSpace=wrap;html=1;backgroundOutline=1;" vertex="1" parent="1">
          <mxGeometry x="361" y="399" width="120" height="60" as="geometry" />
        </mxCell>
        <mxCell id="iFPo0OKM2Bkg96453K7g-15" style="edgeStyle=orthogonalEdgeStyle;rounded=0;orthogonalLoop=1;jettySize=auto;html=1;exitX=0.5;exitY=1;exitDx=0;exitDy=0;entryX=0.5;entryY=0;entryDx=0;entryDy=0;" edge="1" parent="1" source="iFPo0OKM2Bkg96453K7g-6" target="iFPo0OKM2Bkg96453K7g-7">
          <mxGeometry relative="1" as="geometry" />
        </mxCell>
        <mxCell id="iFPo0OKM2Bkg96453K7g-6" value="Thêm cạnh ngẫu nhiên" style="shape=process;whiteSpace=wrap;html=1;backgroundOutline=1;" vertex="1" parent="1">
          <mxGeometry x="361" y="521" width="120" height="60" as="geometry" />
        </mxCell>
        <mxCell id="iFPo0OKM2Bkg96453K7g-16" style="edgeStyle=orthogonalEdgeStyle;rounded=0;orthogonalLoop=1;jettySize=auto;html=1;exitX=0.5;exitY=1;exitDx=0;exitDy=0;entryX=0.5;entryY=0;entryDx=0;entryDy=0;" edge="1" parent="1" source="iFPo0OKM2Bkg96453K7g-7" target="iFPo0OKM2Bkg96453K7g-8">
          <mxGeometry relative="1" as="geometry" />
        </mxCell>
        <mxCell id="iFPo0OKM2Bkg96453K7g-7" value="Vẽ đồ thị Canvas" style="shape=process;whiteSpace=wrap;html=1;backgroundOutline=1;" vertex="1" parent="1">
          <mxGeometry x="361" y="644" width="120" height="60" as="geometry" />
        </mxCell>
        <mxCell id="iFPo0OKM2Bkg96453K7g-17" style="edgeStyle=orthogonalEdgeStyle;rounded=0;orthogonalLoop=1;jettySize=auto;html=1;exitX=0.5;exitY=1;exitDx=0;exitDy=0;entryX=0.5;entryY=0;entryDx=0;entryDy=0;" edge="1" parent="1" source="iFPo0OKM2Bkg96453K7g-8" target="iFPo0OKM2Bkg96453K7g-9">
          <mxGeometry relative="1" as="geometry">
            <mxPoint x="360" y="859" as="targetPoint" />
          </mxGeometry>
        </mxCell>
        <mxCell id="iFPo0OKM2Bkg96453K7g-8" value="Kiểm tra Euler" style="shape=process;whiteSpace=wrap;html=1;backgroundOutline=1;" vertex="1" parent="1">
          <mxGeometry x="361" y="767" width="120" height="60" as="geometry" />
        </mxCell>
        <mxCell id="iFPo0OKM2Bkg96453K7g-9" value="Vẽ thành công" style="rounded=1;whiteSpace=wrap;html=1;" vertex="1" parent="1">
          <mxGeometry x="361" y="890" width="120" height="60" as="geometry" />
        </mxCell>
      </root>
    </mxGraphModel>
  </diagram>
</mxfile>
